# xmcd
#
# Track frame offsets: 
#        150
#        14978
#        30309
#        43243
#        51249
#        61852
#        75346
#        90300
#        103391
#        118451
#        127379
#        140085
#
# Disc length: 2070 seconds
#
# Revision: 1
# Processed by: cddbd v1.5.2PL0 Copyright (c) Steve Scherf et al.
# Submitted via: ExactAudioCopy v0.99pb5
#
DISCID=b108140c
DTITLE=David Beatty - It's Different Now
DYEAR=1900
DGENRE=
TTITLE0=It's Different Now
TTITLE1=I'm Longing For Home
TTITLE2=Nothing To Compare
TTITLE3=Great Speckled Bird
TTITLE4=If You Know The Lord
TTITLE5=I Praise The Lord
TTITLE6=In This Ole Troubled World
TTITLE7=Welcome Home
TTITLE8=Without Him
TTITLE9=Mansion Over The Hilltop
TTITLE10=Born To Serve The Lord
TTITLE11=How Great Thou Art
EXTD=
EXTT0=
EXTT1=
EXTT2=
EXTT3=
EXTT4=
EXTT5=
EXTT6=
EXTT7=
EXTT8=
EXTT9=
EXTT10=
EXTT11=
PLAYORDER=
